<svg xmlns="http://www.w3.org/2000/svg" width="1280" height="202" viewBox="0 0 1280 202">
  <g id="bg-top" transform="translate(2 -2259.119)">
    <path id="bg-top-2" data-name="bg-top" d="M740.746,471.23c-72.33,8.177-121.326,11.361-174.769,11.361s-102.425-3.185-174.711-11.356c-133.613-15.167-257.506-5.428-348.792,27.439C-7.865,516.8-47.09,541.347-73.99,570.924h1280c-26.9-29.576-66.115-54.122-116.448-72.245C998.285,465.808,874.371,456.079,740.746,471.23Z" transform="translate(71.99 1890.195)" fill="#dff1fd"/>
    <g id="deco-kirakira" transform="translate(20 2269.68)">
      <path id="パス_43725" data-name="パス 43725" d="M76.527,127.472c1.464,5.046,6.787,10.349,11.833,11.813l3.4.99c5.046,1.444,5.046,3.839,0,5.283l-3.4.99c-5.046,1.464-10.369,6.767-11.833,11.813l-.989,3.423c-1.444,5.046-3.839,5.046-5.283,0l-.989-3.423c-1.445-5.046-6.767-10.349-11.813-11.813l-3.423-.99c-5.046-1.444-5.046-3.839,0-5.283l3.423-.99c5.046-1.464,10.369-6.767,11.813-11.813l.989-3.423c1.444-5.046,3.839-5.046,5.283,0Z" transform="translate(-50.244 -27.806)" fill="#dff1fd"/>
      <path id="パス_43727" data-name="パス 43727" d="M100.341,130.024c2.988,10.29,13.832,21.153,24.121,24.121l6.985,2c10.29,2.988,10.29,7.856,0,10.824l-6.985,2c-10.29,2.968-21.133,13.832-24.121,24.121l-2,6.965c-2.968,10.309-7.836,10.309-10.8,0l-2.018-6.965C82.552,182.8,71.688,171.934,61.4,168.966l-6.965-2c-10.29-2.968-10.29-7.836,0-10.824l6.965-2c10.29-2.968,21.153-13.832,24.121-24.121l2.018-6.965c2.968-10.309,7.836-10.309,10.8,0Z" transform="translate(-13.409 -115.326)" fill="#dff1fd"/>
    </g>
    <g id="deco-kirakira-2" data-name="deco-kirakira" transform="translate(1182.644 2321.376)">
      <path id="パス_43727-2" data-name="パス 43727" d="M70.8,124.445c-1.854,6.384-8.581,13.124-14.965,14.965L51.5,140.65c-6.384,1.854-6.384,4.874,0,6.715l4.334,1.24c6.384,1.841,13.111,8.581,14.965,14.965l1.24,4.321c1.842,6.4,4.862,6.4,6.7,0L80,163.57c1.842-6.384,8.581-13.124,14.965-14.965l4.321-1.24c6.384-1.841,6.384-4.862,0-6.715l-4.321-1.24c-6.384-1.841-13.124-8.581-14.965-14.965l-1.252-4.321c-1.841-6.4-4.862-6.4-6.7,0Z" transform="translate(-46.716 -115.326)" fill="#dff1fd"/>
    </g>
    <path id="deco-nose" d="M668.424,583.866a10,10,0,0,1-7.071-17.071,29.844,29.844,0,1,0-42.206,0,10,10,0,0,1-14.142,14.143,49.844,49.844,0,1,1,70.49,0A9.971,9.971,0,0,1,668.424,583.866Z" transform="translate(-0.43 1763.271)" fill="#dff1fd"/>
  </g>
</svg>
