<svg xmlns="http://www.w3.org/2000/svg" width="375" height="85.001" viewBox="0 0 375 85.001">
  <g id="bg-top-sp" transform="translate(0 -2963.484)">
    <path id="パス_43723" data-name="パス 43723" d="M164.7,466.3c-21.19,2.4-35.545,3.328-51.2,3.328S83.493,468.7,62.316,466.3c-39.145-4.444-75.441-1.59-102.185,8.039-14.748,5.31-26.24,12.5-34.121,21.167h375c-7.88-8.665-19.37-15.856-34.116-21.165C240.153,464.711,203.85,461.861,164.7,466.3Z" transform="translate(73.99 2552.978)" fill="#dff1fd"/>
    <path id="パス_43810" data-name="パス 43810" d="M26.135,42.554a4.358,4.358,0,0,1-4.192-3.215A4.307,4.307,0,0,1,25,34.047,12.924,12.924,0,1,0,9.13,24.889a4.307,4.307,0,0,1-3.054,5.292A4.356,4.356,0,0,1,.759,27.113,21.465,21.465,0,0,1,15.983.735,21.586,21.586,0,1,1,27.26,42.408,4.336,4.336,0,0,1,26.135,42.554Z" transform="translate(158.142 2985.101) rotate(-30)" fill="#dff1fd"/>
    <g id="グループ_10970" data-name="グループ 10970" transform="translate(7 2974.349)">
      <g id="グループ_10928" data-name="グループ 10928">
        <path id="パス_43725" data-name="パス 43725" d="M60.128,122.975a7.277,7.277,0,0,0,4.45,4.443l1.28.372c1.9.543,1.9,1.444,0,1.987l-1.28.372a7.276,7.276,0,0,0-4.45,4.443l-.372,1.287c-.543,1.9-1.444,1.9-1.987,0l-.372-1.287a7.247,7.247,0,0,0-4.443-4.443l-1.287-.372c-1.9-.543-1.9-1.444,0-1.987l1.287-.372a7.247,7.247,0,0,0,4.443-4.443l.372-1.287c.543-1.9,1.444-1.9,1.987,0Z" transform="translate(-50.244 -85.492)" fill="#dff1fd"/>
        <path id="パス_43727" data-name="パス 43727" d="M66.883,120.854a14.837,14.837,0,0,0,9.072,9.072l2.627.752c3.87,1.124,3.87,2.954,0,4.071l-2.627.752a14.837,14.837,0,0,0-9.072,9.071l-.752,2.62c-1.116,3.877-2.947,3.877-4.063,0l-.759-2.62a14.819,14.819,0,0,0-9.072-9.071l-2.619-.752c-3.87-1.116-3.87-2.947,0-4.071l2.619-.752a14.819,14.819,0,0,0,9.072-9.072l.759-2.619c1.116-3.877,2.947-3.877,4.063,0Z" transform="translate(-34.19 -115.326)" fill="#dff1fd"/>
      </g>
      <g id="グループ_10929" data-name="グループ 10929" transform="translate(332.943 25.905)">
        <path id="パス_43727-2" data-name="パス 43727" d="M56.4,118.992a9.84,9.84,0,0,1-6.016,6.016l-1.742.5c-2.566.745-2.566,1.959,0,2.7l1.742.5a9.84,9.84,0,0,1,6.016,6.016l.5,1.737c.74,2.571,1.954,2.571,2.695,0l.5-1.737a9.828,9.828,0,0,1,6.016-6.016l1.737-.5c2.566-.74,2.566-1.954,0-2.7l-1.737-.5a9.828,9.828,0,0,1-6.016-6.016l-.5-1.737c-.74-2.571-1.954-2.571-2.695,0Z" transform="translate(-46.716 -115.326)" fill="#dff1fd"/>
      </g>
    </g>
  </g>
</svg>
