<svg xmlns="http://www.w3.org/2000/svg" width="556" height="308" viewBox="0 0 556 308">
  <g id="concept-bg_sp" transform="translate(-418 -820.777)">
    <path id="パス_43822" data-name="パス 43822" d="M720.993-1014.206c-377.7,104.719-396.6-122.4-345.852-194.62s164.013-43.544,217.407-33.168,128.445-18.859,128.445-18.859,65.381-34.2,107.6-29.236,73.816,28,79.544,73.96C914.914-1161.791,863.539-1053.349,720.993-1014.206Z" transform="translate(65.273 2115.848)" fill="#dff1fd"/>
    <g id="グループ_11128" data-name="グループ 11128" transform="translate(418 830.447)">
      <path id="パス_43725" data-name="パス 43725" d="M61.4,123.323a8.212,8.212,0,0,0,5.022,5.014l1.444.42c2.142.613,2.142,1.629,0,2.242l-1.444.42a8.211,8.211,0,0,0-5.022,5.014l-.42,1.453c-.613,2.141-1.629,2.141-2.242,0l-.42-1.453a8.178,8.178,0,0,0-5.014-5.014L51.85,131c-2.142-.613-2.142-1.629,0-2.242l1.453-.42a8.178,8.178,0,0,0,5.014-5.014l.42-1.453c.613-2.142,1.629-2.142,2.242,0Z" transform="translate(-50.244 -81.024)" fill="#dff1fd"/>
      <path id="パス_43727" data-name="パス 43727" d="M69.475,121.564A16.744,16.744,0,0,0,79.712,131.8l2.965.848c4.367,1.268,4.367,3.334,0,4.594l-2.965.848a16.744,16.744,0,0,0-10.237,10.237l-.848,2.956c-1.26,4.375-3.326,4.375-4.585,0l-.857-2.956a16.723,16.723,0,0,0-10.237-10.237l-2.956-.848c-4.367-1.26-4.367-3.326,0-4.594l2.956-.848a16.723,16.723,0,0,0,10.237-10.237l.857-2.956c1.26-4.375,3.326-4.375,4.585,0Z" transform="translate(-32.58 -115.326)" fill="#dff1fd"/>
    </g>
    <path id="パス_43823" data-name="パス 43823" d="M615.921,532.417a4.245,4.245,0,0,1-1.1-8.346,12.667,12.667,0,1,0-15.516-8.955,4.245,4.245,0,1,1-8.2,2.2,21.157,21.157,0,1,1,25.914,14.956A4.24,4.24,0,0,1,615.921,532.417Z" transform="translate(96.011 330.107)" fill="#dff1fd"/>
  </g>
</svg>
