<svg xmlns="http://www.w3.org/2000/svg" width="1311" height="725" viewBox="0 0 1311 725">
  <g id="concept-bg" transform="translate(-418 -820.777)">
    <path id="パス_43822" data-name="パス 43822" d="M1218.479-639.507C327.9-392.813,283.333-927.851,402.988-1097.987s386.73-102.58,512.628-78.136,302.863-44.427,302.863-44.427,154.163-80.559,253.723-68.874,174.053,65.966,187.559,174.233C1675.73-987.181,1554.592-731.719,1218.479-639.507Z" transform="translate(67.859 2121.359)" fill="#dff1fd"/>
    <g id="グループ_11128" data-name="グループ 11128" transform="translate(418 843.562)">
      <path id="パス_43725" data-name="パス 43725" d="M76.527,127.472c1.464,5.046,6.787,10.349,11.833,11.813l3.4.99c5.046,1.444,5.046,3.839,0,5.283l-3.4.99c-5.046,1.464-10.369,6.767-11.833,11.813l-.989,3.423c-1.444,5.046-3.839,5.046-5.283,0l-.989-3.423c-1.445-5.046-6.767-10.349-11.813-11.813l-3.423-.99c-5.046-1.444-5.046-3.839,0-5.283l3.423-.99c5.046-1.464,10.369-6.767,11.813-11.813l.989-3.423c1.444-5.046,3.839-5.046,5.283,0Z" transform="translate(-50.244 -27.806)" fill="#dff1fd"/>
      <path id="パス_43727" data-name="パス 43727" d="M100.341,130.024c2.988,10.29,13.832,21.153,24.121,24.121l6.985,2c10.29,2.988,10.29,7.856,0,10.824l-6.985,2c-10.29,2.968-21.133,13.832-24.121,24.121l-2,6.965c-2.968,10.309-7.836,10.309-10.8,0l-2.018-6.965C82.552,182.8,71.688,171.934,61.4,168.966l-6.965-2c-10.29-2.968-10.29-7.836,0-10.824l6.965-2c10.29-2.968,21.153-13.832,24.121-24.121l2.018-6.965c2.968-10.309,7.836-10.309,10.8,0Z" transform="translate(-13.409 -115.326)" fill="#dff1fd"/>
    </g>
    <path id="パス_43823" data-name="パス 43823" d="M650.563,589.035a10,10,0,0,1-2.584-19.664,29.847,29.847,0,1,0-36.558-21.1,10,10,0,1,1-19.32,5.18,49.85,49.85,0,1,1,61.058,35.24A9.993,9.993,0,0,1,650.563,589.035Z" transform="translate(460.499 330.107)" fill="#dff1fd"/>
  </g>
</svg>
