<svg xmlns="http://www.w3.org/2000/svg" width="125.307" height="138" viewBox="0 0 125.307 138">
  <g id="deco-kirakira-w" transform="translate(0 0.387)">
    <path id="パス_43725" data-name="パス 43725" d="M76.351,127.423c1.455,5.012,6.742,10.279,11.754,11.734l3.381.983c5.012,1.435,5.012,3.813,0,5.248l-3.381.983c-5.012,1.454-10.3,6.722-11.754,11.734l-.983,3.4c-1.435,5.012-3.813,5.012-5.248,0l-.983-3.4c-1.435-5.012-6.722-10.28-11.734-11.734l-3.4-.983c-5.012-1.435-5.012-3.813,0-5.248l3.4-.983c5.012-1.455,10.3-6.722,11.734-11.734l.983-3.4c1.435-5.012,3.813-5.012,5.248,0Z" transform="translate(-50.244 -27.65)" fill="#fff"/>
    <path id="パス_43727" data-name="パス 43727" d="M100.081,129.951c2.973,10.239,13.765,21.048,24,24l6.951,1.989c10.24,2.973,10.24,7.817,0,10.77l-6.951,1.989c-10.24,2.953-21.031,13.763-24,24l-1.989,6.931c-2.954,10.258-7.8,10.258-10.752,0L85.332,192.7c-2.954-10.238-13.765-21.048-24-24L54.4,166.711c-10.24-2.953-10.24-7.8,0-10.77l6.931-1.989c10.24-2.953,21.051-13.763,24-24l2.008-6.931c2.954-10.258,7.8-10.258,10.752,0Z" transform="translate(-13.409 -115.713)" fill="#fff"/>
  </g>
</svg>
