<svg xmlns="http://www.w3.org/2000/svg" width="57" height="57" viewBox="0 0 57 57">
  <path id="deco-kirakira2-w" d="M70.653,124.387c-1.842,6.343-8.528,13.041-14.872,14.871l-4.307,1.232c-6.344,1.842-6.344,4.843,0,6.673l4.307,1.232c6.344,1.83,13.03,8.527,14.872,14.87l1.232,4.294c1.83,6.356,4.831,6.356,6.661,0l1.244-4.294c1.83-6.343,8.528-13.041,14.872-14.87l4.294-1.232c6.344-1.83,6.344-4.831,0-6.673l-4.294-1.232c-6.344-1.83-13.042-8.527-14.872-14.871l-1.244-4.294c-1.83-6.356-4.831-6.356-6.661,0Z" transform="translate(-46.716 -115.326)" fill="#fff"/>
</svg>
