<svg height="28.613" viewBox="0 0 48.858 28.613" width="48.858" xmlns="http://www.w3.org/2000/svg"><g fill="#fff"><path d="m11.716 0h-9.648a2.068 2.068 0 0 0 -2.068 2.068v17.918a2.068 2.068 0 0 0 2.068 2.068h9.649a2.068 2.068 0 0 0 2.068-2.068v-17.918a2.068 2.068 0 0 0 -2.069-2.068zm-4.824 20.675a1.378 1.378 0 1 1 1.378-1.375 1.377 1.377 0 0 1 -1.378 1.375zm4.824-4.652a.518.518 0 0 1 -.517.517h-8.615a.518.518 0 0 1 -.517-.517v-13.439a.518.518 0 0 1 .517-.517h8.616a.518.518 0 0 1 .517.517z" transform="translate(35.074 6.559)"/><path d="m29.507 0h-26.825a2.683 2.683 0 0 0 -2.682 2.682v17.883a2.683 2.683 0 0 0 2.682 2.682h10.73l-.894 2.682h-4.024a1.341 1.341 0 1 0 0 2.682h15.2a1.341 1.341 0 1 0 0-2.682h-4.023l-.894-2.682h10.73a2.683 2.683 0 0 0 2.682-2.682v-17.883a2.683 2.683 0 0 0 -2.682-2.682zm-.894 19.671h-25.036v-16.094h25.036z"/></g></svg>