<svg xmlns="http://www.w3.org/2000/svg" width="20" height="20" viewBox="0 0 20 20">
  <g id="icon-calendar" transform="translate(-888 -1840)">
    <rect id="長方形_23402" data-name="長方形 23402" width="20" height="20" transform="translate(888 1840)" fill="none"/>
    <path id="calendar-alt" d="M0,13.573a1.391,1.391,0,0,0,1.377,1.4h10.1a1.391,1.391,0,0,0,1.377-1.4V5.616H0ZM9.182,7.839a.349.349,0,0,1,.344-.351h1.148a.349.349,0,0,1,.344.351v1.17a.349.349,0,0,1-.344.351H9.526a.349.349,0,0,1-.344-.351Zm0,3.744a.349.349,0,0,1,.344-.351h1.148a.349.349,0,0,1,.344.351v1.17a.349.349,0,0,1-.344.351H9.526a.349.349,0,0,1-.344-.351ZM5.509,7.839a.349.349,0,0,1,.344-.351H7a.349.349,0,0,1,.344.351v1.17A.349.349,0,0,1,7,9.36H5.853a.349.349,0,0,1-.344-.351Zm0,3.744a.349.349,0,0,1,.344-.351H7a.349.349,0,0,1,.344.351v1.17A.349.349,0,0,1,7,13.1H5.853a.349.349,0,0,1-.344-.351ZM1.836,7.839a.349.349,0,0,1,.344-.351H3.328a.349.349,0,0,1,.344.351v1.17a.349.349,0,0,1-.344.351H2.181a.349.349,0,0,1-.344-.351Zm0,3.744a.349.349,0,0,1,.344-.351H3.328a.349.349,0,0,1,.344.351v1.17a.349.349,0,0,1-.344.351H2.181a.349.349,0,0,1-.344-.351Zm9.641-9.711H10.1V.468A.465.465,0,0,0,9.641,0H8.723a.465.465,0,0,0-.459.468v1.4H4.591V.468A.465.465,0,0,0,4.132,0H3.214a.465.465,0,0,0-.459.468v1.4H1.377A1.391,1.391,0,0,0,0,3.276v1.4H12.854v-1.4A1.391,1.391,0,0,0,11.477,1.872Z" transform="translate(892 1843)" fill="#393939"/>
  </g>
</svg>
