<svg xmlns="http://www.w3.org/2000/svg" width="182.116" height="32.6" viewBox="0 0 182.116 32.6">
  <g id="recommend-2" transform="translate(-2 -4.4)">
    <g id="グループ_10939" data-name="グループ 10939" transform="translate(491.38 5)">
      <path id="パス_43802" data-name="パス 43802" d="M325.36,477.356a90.922,90.922,0,0,0-5.121,8.43c-3.46,6.141-9.258,16.99-11.373,20.7-1.1,1.938.538,2.382,1.1,1.651.246-.319,5.183-8.271,9.772-16.156,3.594-6.174,6.973-12.465,7.716-13.977C327.96,476.977,326.311,475.752,325.36,477.356Z" transform="translate(-636.662 -476.582)" fill="#1391e6" fill-rule="evenodd"/>
      <path id="パス_43803" data-name="パス 43803" d="M314.52,492.266c-1.451,1.4-5.233,4.785-6.711,6.784-1.579,1.953.68,2,1.7,1,1.082-1.058,5.7-5.644,6.814-7.005C318.051,490.943,316.684,490.122,314.52,492.266Z" transform="translate(-624.371 -468.691)" fill="#1391e6" fill-rule="evenodd"/>
    </g>
    <g id="グループ_10893" data-name="グループ 10893" transform="translate(-15.094)">
      <g id="グループ_10932" data-name="グループ 10932" transform="translate(-2.176)">
        <path id="パス_43838" data-name="パス 43838" d="M-8.64-22.84a4.471,4.471,0,0,0-4.16-2.4,4.471,4.471,0,0,0-4.16,2.4q-1.36,2.4-1.36,8.24t1.36,8.24a4.471,4.471,0,0,0,4.16,2.4,4.471,4.471,0,0,0,4.16-2.4q1.36-2.4,1.36-8.24T-8.64-22.84ZM-4.4-3.16Q-7.16.4-12.8.4t-8.42-3.56Q-24-6.72-24-14.6t2.78-11.44q2.78-3.56,8.42-3.56t8.42,3.56Q-1.6-22.48-1.6-14.6T-4.4-3.16ZM22.4-21.08a12.558,12.558,0,0,1-2.38,7.22Q17.64-10.4,10.8-4.68q-.08.08-.08.12a.035.035,0,0,0,.04.04H20.2a2.222,2.222,0,0,1,1.6.66,2.125,2.125,0,0,1,.68,1.58,2.189,2.189,0,0,1-.68,1.6A2.189,2.189,0,0,1,20.2,0H5.52A2.125,2.125,0,0,1,3.94-.68a2.222,2.222,0,0,1-.66-1.6A4.4,4.4,0,0,1,5-5.92q6.92-5.52,9.28-8.6a9.934,9.934,0,0,0,2.36-6q0-4.44-4.76-4.44A16.825,16.825,0,0,0,5.96-23.6a1.422,1.422,0,0,1-1.42-.12,1.372,1.372,0,0,1-.66-1.2v-.68a3.325,3.325,0,0,1,.58-1.9A2.738,2.738,0,0,1,6-28.64a24.511,24.511,0,0,1,6.68-.96q4.68,0,7.2,2.24A7.964,7.964,0,0,1,22.4-21.08Z" transform="translate(146 35)" fill="none" stroke="#1391e6" stroke-width="2"/>
      </g>
      <path id="パス_43837" data-name="パス 43837" d="M-26.528-4.944a3.977,3.977,0,0,0-1.7.912A1.758,1.758,0,0,0-28.8-2.768a1.509,1.509,0,0,0,.5,1.112,1.551,1.551,0,0,0,1.1.488.82.82,0,0,0,.632-.192,1.128,1.128,0,0,0,.168-.72V-4.848Q-26.4-4.976-26.528-4.944ZM-26.992.64a3.977,3.977,0,0,1-2.72-.984,3.1,3.1,0,0,1-1.12-2.424,3.446,3.446,0,0,1,1.128-2.5A6.716,6.716,0,0,1-26.528-6.9a.161.161,0,0,0,.128-.176V-9.088a.127.127,0,0,0-.144-.144H-29.28a.817.817,0,0,1-.6-.248.817.817,0,0,1-.248-.6.817.817,0,0,1,.248-.6.817.817,0,0,1,.6-.248h2.736a.127.127,0,0,0,.144-.144V-12a.876.876,0,0,1,.272-.64.876.876,0,0,1,.64-.272h.208a.876.876,0,0,1,.64.272.876.876,0,0,1,.272.64v.928q0,.144.128.144h2.528a.844.844,0,0,1,.608.248.8.8,0,0,1,.256.6.8.8,0,0,1-.256.6.844.844,0,0,1-.608.248H-24.24q-.128,0-.128.144V-7.36q0,.128.144.128.256-.016.816-.016a6.165,6.165,0,0,1,3.824,1.1,3.267,3.267,0,0,1,1.456,2.672q0,3.408-3.68,4.176a.887.887,0,0,1-.7-.136.987.987,0,0,1-.416-.6l-.016-.048a.818.818,0,0,1,.12-.656.869.869,0,0,1,.552-.384A2.986,2.986,0,0,0-20.7-1.928a2.061,2.061,0,0,0,.5-1.432,1.665,1.665,0,0,0-.872-1.384,4.123,4.123,0,0,0-2.328-.584q-.56,0-.816.016a.127.127,0,0,0-.144.144v3.2a2.835,2.835,0,0,1-.576,2.04A2.894,2.894,0,0,1-26.992.64Zm8.592-11.5q.864,1.168,1.5,2.192a.827.827,0,0,1,.1.664.814.814,0,0,1-.392.536.9.9,0,0,1-.672.088.87.87,0,0,1-.544-.392q-.768-1.2-1.408-2.08a.858.858,0,0,1-.16-.64.8.8,0,0,1,.336-.56.893.893,0,0,1,.664-.152A.83.83,0,0,1-18.4-10.864ZM-7.6-4.72a1.36,1.36,0,0,0,.448-1.04A1.335,1.335,0,0,0-7.6-6.792,1.645,1.645,0,0,0-8.752-7.2,1.645,1.645,0,0,0-9.9-6.792a1.335,1.335,0,0,0-.448,1.032A1.335,1.335,0,0,0-9.9-4.728a1.645,1.645,0,0,0,1.152.408A1.665,1.665,0,0,0-7.6-4.72ZM-14.08-9.6a.817.817,0,0,1-.6-.248.817.817,0,0,1-.248-.6.844.844,0,0,1,.248-.608.8.8,0,0,1,.6-.256H-7.5q.144,0,.144-.128v-.72a.876.876,0,0,1,.272-.64.876.876,0,0,1,.64-.272h.208a.876.876,0,0,1,.64.272.876.876,0,0,1,.272.64v.7q0,.144.128.144h3.28a.8.8,0,0,1,.6.256.844.844,0,0,1,.248.608.817.817,0,0,1-.248.6.817.817,0,0,1-.6.248H-5.2q-.128,0-.128.144v2.9a.69.69,0,0,0,.048.272,5.584,5.584,0,0,1,.368,2.016A4.855,4.855,0,0,1-6.1-.768,6.81,6.81,0,0,1-10.016.9.838.838,0,0,1-10.7.72a1.023,1.023,0,0,1-.392-.608V.048A.812.812,0,0,1-10.936-.6a.883.883,0,0,1,.584-.36,6.185,6.185,0,0,0,2.464-.776A2.294,2.294,0,0,0-6.96-3.184a.071.071,0,0,1,.008-.032.071.071,0,0,0,.008-.032v-.016h-.048a3.215,3.215,0,0,1-2.08.656A3.279,3.279,0,0,1-11.448-3.5a3.01,3.01,0,0,1-.92-2.264,2.978,2.978,0,0,1,.936-2.272,3.4,3.4,0,0,1,2.424-.88,3.593,3.593,0,0,1,1.6.368q.016,0,.016.008t.016.008a.014.014,0,0,0,.016-.016v-.912A.127.127,0,0,0-7.5-9.6ZM8.4-4.72a1.36,1.36,0,0,0,.448-1.04A1.335,1.335,0,0,0,8.4-6.792,1.645,1.645,0,0,0,7.248-7.2,1.645,1.645,0,0,0,6.1-6.792,1.335,1.335,0,0,0,5.648-5.76,1.335,1.335,0,0,0,6.1-4.728a1.645,1.645,0,0,0,1.152.408A1.665,1.665,0,0,0,8.4-4.72ZM1.92-9.6a.817.817,0,0,1-.6-.248.817.817,0,0,1-.248-.6.844.844,0,0,1,.248-.608.8.8,0,0,1,.6-.256H8.5q.144,0,.144-.128v-.72a.876.876,0,0,1,.272-.64.876.876,0,0,1,.64-.272H9.76a.876.876,0,0,1,.64.272.876.876,0,0,1,.272.64v.7q0,.144.128.144h3.28a.8.8,0,0,1,.6.256.844.844,0,0,1,.248.608.817.817,0,0,1-.248.6.817.817,0,0,1-.6.248H10.8q-.128,0-.128.144v2.9a.69.69,0,0,0,.048.272,5.584,5.584,0,0,1,.368,2.016A4.855,4.855,0,0,1,9.9-.768,6.81,6.81,0,0,1,5.984.9.838.838,0,0,1,5.3.72,1.023,1.023,0,0,1,4.912.112V.048A.812.812,0,0,1,5.064-.6a.883.883,0,0,1,.584-.36,6.185,6.185,0,0,0,2.464-.776A2.294,2.294,0,0,0,9.04-3.184a.071.071,0,0,1,.008-.032.071.071,0,0,0,.008-.032v-.016H9.008a3.215,3.215,0,0,1-2.08.656A3.279,3.279,0,0,1,4.552-3.5a3.01,3.01,0,0,1-.92-2.264,2.978,2.978,0,0,1,.936-2.272,3.4,3.4,0,0,1,2.424-.88,3.593,3.593,0,0,1,1.6.368q.016,0,.016.008t.016.008a.014.014,0,0,0,.016-.016v-.912A.127.127,0,0,0,8.5-9.6ZM20.128-7.072a4.43,4.43,0,0,0-1.2,3.12,3.167,3.167,0,0,0,.36,1.656,1.03,1.03,0,0,0,.872.584,2.3,2.3,0,0,0,1.5-.9.191.191,0,0,0,.016-.224.36.36,0,0,1-.064-.128q-.768-2.144-1.36-4.064Q20.224-7.168,20.128-7.072ZM24.32-8.688a6.679,6.679,0,0,0-2.272.368.147.147,0,0,0-.1.192Q22.4-6.592,23.04-4.672q.032.1.112-.016A23.079,23.079,0,0,0,24.9-8.528a.121.121,0,0,0-.008-.1.077.077,0,0,0-.072-.048Q24.656-8.688,24.32-8.688ZM19.952.272a2.543,2.543,0,0,1-2.1-1.112,5.068,5.068,0,0,1-.84-3.112,6.636,6.636,0,0,1,.656-2.936,6.423,6.423,0,0,1,1.84-2.28.194.194,0,0,0,.1-.192q-.32-1.184-.464-1.792a.894.894,0,0,1,.12-.688.806.806,0,0,1,.568-.384l.144-.032a.973.973,0,0,1,.688.128.833.833,0,0,1,.4.56q.048.224.16.648t.144.584q.032.112.16.08a8.248,8.248,0,0,1,2.8-.464,8.965,8.965,0,0,1,1.136.064.13.13,0,0,0,.176-.112q.128-.432.384-1.36a.943.943,0,0,1,.424-.576.9.9,0,0,1,.7-.128l.128.032a.867.867,0,0,1,.568.392.794.794,0,0,1,.1.664q-.224.928-.4,1.488a.134.134,0,0,0,.08.176A5.6,5.6,0,0,1,30.1-8.064a5.335,5.335,0,0,1,.9,3.056,6.081,6.081,0,0,1-1.1,3.776A5.477,5.477,0,0,1,26.7.736a.849.849,0,0,1-.7-.112.947.947,0,0,1-.424-.592L25.552-.08a.764.764,0,0,1,.1-.648.925.925,0,0,1,.552-.408A3.6,3.6,0,0,0,28.96-5.008a3.351,3.351,0,0,0-.52-1.84,3.542,3.542,0,0,0-1.464-1.28q-.1-.048-.16.08A19.52,19.52,0,0,1,23.5-1.816Q21.664.272,19.952.272Z" transform="translate(80.832 25.5)" fill="#1391e6"/>
    </g>
    <g id="グループ_10938" data-name="グループ 10938" transform="translate(-305.265 -471.582)">
      <path id="パス_43802-2" data-name="パス 43802" d="M310.68,477.356a90.922,90.922,0,0,1,5.121,8.43c3.46,6.141,9.258,16.99,11.373,20.7,1.1,1.938-.538,2.382-1.1,1.651-.246-.319-5.183-8.271-9.772-16.156-3.594-6.174-6.973-12.465-7.716-13.977C308.08,476.977,309.729,475.752,310.68,477.356Z" transform="translate(0.623 0)" fill="#1391e6" fill-rule="evenodd"/>
      <path id="パス_43803-2" data-name="パス 43803" d="M309.851,492.266c1.451,1.4,5.233,4.785,6.711,6.784,1.579,1.953-.68,2-1.7,1-1.082-1.058-5.7-5.644-6.814-7.005C306.32,490.943,307.687,490.122,309.851,492.266Z" transform="translate(0 7.89)" fill="#1391e6" fill-rule="evenodd"/>
    </g>
  </g>
</svg>
