<svg xmlns="http://www.w3.org/2000/svg" width="276" height="255" viewBox="0 0 276 255">
  <g id="recommend-img-03" transform="translate(3 -111.5)">
    <g id="グループ_8997" data-name="グループ 8997" transform="translate(25 111.5)">
      <ellipse id="楕円形_423" data-name="楕円形 423" cx="110" cy="109.5" rx="110" ry="109.5" fill="#dff1fd"/>
      <g id="グループ_10891" data-name="グループ 10891" transform="translate(44 44)">
        <g id="グループ_10889" data-name="グループ 10889" transform="translate(0 2.131)">
          <g id="グループ_10886" data-name="グループ 10886">
            <circle id="楕円形_428" data-name="楕円形 428" cx="61.866" cy="61.866" r="61.866" transform="translate(2.626 2.625)" fill="#fff"/>
            <path id="パス_43754" data-name="パス 43754" d="M975.682,850.956a64.491,64.491,0,1,1,64.491-64.492A64.565,64.565,0,0,1,975.682,850.956Zm0-123.731a59.241,59.241,0,1,0,59.24,59.24A59.307,59.307,0,0,0,975.682,727.225Z" transform="translate(-911.19 -721.975)" fill="#1391e6"/>
          </g>
          <g id="グループ_10887" data-name="グループ 10887" transform="translate(60.71 10.282)">
            <circle id="楕円形_429" data-name="楕円形 429" cx="3.782" cy="3.782" r="3.782" fill="#1391e6"/>
            <circle id="楕円形_430" data-name="楕円形 430" cx="3.782" cy="3.782" r="3.782" transform="translate(0 100.854)" fill="#1391e6"/>
          </g>
          <g id="グループ_10888" data-name="グループ 10888" transform="translate(10.283 60.709)">
            <circle id="楕円形_431" data-name="楕円形 431" cx="3.782" cy="3.782" r="3.782" transform="translate(100.854)" fill="#1391e6"/>
            <circle id="楕円形_432" data-name="楕円形 432" cx="3.782" cy="3.782" r="3.782" fill="#1391e6"/>
          </g>
          <circle id="楕円形_433" data-name="楕円形 433" cx="2.062" cy="2.062" r="2.062" transform="translate(106.101 37.215)" fill="#1391e6"/>
          <circle id="楕円形_434" data-name="楕円形 434" cx="2.062" cy="2.062" r="2.062" transform="translate(18.758 87.642)" fill="#1391e6"/>
          <circle id="楕円形_435" data-name="楕円形 435" cx="2.062" cy="2.062" r="2.062" transform="translate(87.643 18.757)" fill="#1391e6"/>
          <circle id="楕円形_436" data-name="楕円形 436" cx="2.062" cy="2.062" r="2.062" transform="translate(37.216 106.1)" fill="#1391e6"/>
          <circle id="楕円形_437" data-name="楕円形 437" cx="2.062" cy="2.062" r="2.062" transform="translate(37.216 18.757)" fill="#1391e6"/>
          <circle id="楕円形_438" data-name="楕円形 438" cx="2.062" cy="2.062" r="2.062" transform="translate(87.643 106.1)" fill="#1391e6"/>
          <circle id="楕円形_439" data-name="楕円形 439" cx="2.062" cy="2.062" r="2.062" transform="translate(18.758 37.215)" fill="#1391e6"/>
          <circle id="楕円形_440" data-name="楕円形 440" cx="2.062" cy="2.062" r="2.062" transform="translate(106.101 87.642)" fill="#1391e6"/>
          <path id="パス_43755" data-name="パス 43755" d="M988.127,841.778h0c-1.054,0-1.928-1.164-2-2.661l-1.649-36.435c-.075-1.639.84-3.026,2-3.026h3.3c1.155,0,2.07,1.387,2,3.026l-1.649,36.435C990.054,840.614,989.181,841.778,988.127,841.778Z" transform="translate(-923.635 -735.166)" fill="#1391e6"/>
          <path id="パス_43756" data-name="パス 43756" d="M951.818,807.423h0a2.2,2.2,0,0,1,1.352-2.679l25.948-8.852a2.184,2.184,0,0,1,2.774,1.577l.956,3.576a2.183,2.183,0,0,1-1.617,2.75l-26.9,5.276A2.2,2.2,0,0,1,951.818,807.423Z" transform="translate(-918.075 -734.508)" fill="#1391e6"/>
          <circle id="楕円形_441" data-name="楕円形 441" cx="5.074" cy="5.074" r="5.074" transform="translate(59.15 59.416)" fill="#1391e6"/>
        </g>
        <g id="グループ_10890" data-name="グループ 10890" transform="translate(83.515)">
          <circle id="楕円形_442" data-name="楕円形 442" cx="23.799" cy="23.799" r="23.799" fill="#1391e6"/>
          <path id="パス_43757" data-name="パス 43757" d="M1048.212,734.005a15.414,15.414,0,0,0-12.963-4.375,10.014,10.014,0,1,1-13.239,13.239,15.43,15.43,0,1,0,26.2-8.864Z" transform="translate(-1013.501 -721.121)" fill="#fff"/>
        </g>
      </g>
    </g>
    <g id="tag" transform="translate(-3 310.677)">
      <path id="合体_1" data-name="合体 1" d="M136.244,54.781,130.364,44H22A22,22,0,0,1,22,0H254a22,22,0,1,1,0,44H145.636l-5.88,10.781a2,2,0,0,1-3.512,0Z" fill="#1391e6"/>
      <text id="夜20:30まで営業" transform="translate(138 30)" fill="#fff" font-size="20" font-family="rounded-mplus-1c-bold, 'Rounded M\+ \31 c'" font-weight="700" letter-spacing="0.08em"><tspan x="-86" y="0">夜20:30</tspan><tspan y="0">まで</tspan><tspan y="0">営業</tspan></text>
    </g>
  </g>
</svg>
