<svg xmlns="http://www.w3.org/2000/svg" width="276" height="254.996" viewBox="0 0 276 254.996">
  <g id="recommend-img-02" transform="translate(-4.5 -93.972)">
    <g id="グループ_8997" data-name="グループ 8997" transform="translate(32.5 93.5)">
      <ellipse id="楕円形_423" data-name="楕円形 423" cx="110" cy="108.5" rx="110" ry="108.5" transform="translate(0 0.472)" fill="#dff1fd"/>
      <g id="グループ_10927" data-name="グループ 10927" transform="translate(55.206 38.374)">
        <path id="パス_43784" data-name="パス 43784" d="M676.532,832.217h96.558a13.847,13.847,0,0,0,6.289-11.544V730.551A14.138,14.138,0,0,0,765.1,716.593H740.819V715A1.794,1.794,0,0,0,739,713.224H710.618A1.8,1.8,0,0,0,708.8,715v1.6H684.526a14.138,14.138,0,0,0-14.281,13.958v90.122A13.848,13.848,0,0,0,676.532,832.217Z" transform="translate(-670.244 -713.224)" fill="#fff"/>
        <g id="グループ_10927-2" data-name="グループ 10927">
          <path id="パス_43785" data-name="パス 43785" d="M765.1,835.35h-80.57a14.138,14.138,0,0,1-14.281-13.958V731.271a14.138,14.138,0,0,1,14.281-13.958H765.1a14.138,14.138,0,0,1,14.282,13.958v90.121A14.138,14.138,0,0,1,765.1,835.35Zm-80.57-112.826a8.861,8.861,0,0,0-8.95,8.747v90.121a8.861,8.861,0,0,0,8.95,8.747H765.1a8.861,8.861,0,0,0,8.95-8.747V731.271a8.861,8.861,0,0,0-8.95-8.747Z" transform="translate(-670.244 -713.944)" fill="#1391e6"/>
          <path id="パス_43786" data-name="パス 43786" d="M762.526,743.166a4.1,4.1,0,0,1,4.156,4.037v41.238a4.1,4.1,0,0,1-4.155,4.037H691.919a4.1,4.1,0,0,1-4.155-4.037V747.2a4.1,4.1,0,0,1,4.155-4.037h70.607m0-3.708H691.919a7.861,7.861,0,0,0-7.972,7.745v41.238a7.861,7.861,0,0,0,7.972,7.745h70.608a7.861,7.861,0,0,0,7.972-7.745V747.2a7.862,7.862,0,0,0-7.973-7.745Z" transform="translate(-672.656 -717.842)" fill="#1391e6"/>
          <path id="パス_43787" data-name="パス 43787" d="M695.673,818.822a8.018,8.018,0,1,1-8.018,8.019,8.028,8.028,0,0,1,8.018-8.019m0-3.708A11.726,11.726,0,1,0,707.4,826.841a11.726,11.726,0,0,0-11.727-11.727Z" transform="translate(-672.656 -731.16)" fill="#1391e6"/>
          <path id="パス_43788" data-name="パス 43788" d="M769.254,818.822a8.018,8.018,0,1,1-8.019,8.019,8.027,8.027,0,0,1,8.019-8.019m0-3.708a11.726,11.726,0,1,0,11.726,11.727,11.727,11.727,0,0,0-11.726-11.727Z" transform="translate(-683.136 -731.16)" fill="#1391e6"/>
          <path id="パス_43789" data-name="パス 43789" d="M742.06,734.125H722.606a2.605,2.605,0,1,1,0-5.211H742.06a2.605,2.605,0,1,1,0,5.211Z" transform="translate(-677.767 -715.986)" fill="#1391e6"/>
          <path id="パス_43790" data-name="パス 43790" d="M672.849,878.846a2.606,2.606,0,0,1-1.972-4.309l16.736-19.391a2.606,2.606,0,0,1,3.945,3.405l-16.737,19.391A2.6,2.6,0,0,1,672.849,878.846Z" transform="translate(-670.244 -738.048)" fill="#1391e6"/>
          <path id="パス_43791" data-name="パス 43791" d="M792.4,878.846a2.6,2.6,0,0,1-1.973-.9L773.69,858.552a2.606,2.606,0,0,1,3.944-3.405l16.737,19.391a2.606,2.606,0,0,1-1.972,4.309Z" transform="translate(-685.87 -738.048)" fill="#1391e6"/>
          <path id="パス_43792" data-name="パス 43792" d="M769.8,872.5H683.077a2.606,2.606,0,1,1,0-5.211H769.8a2.606,2.606,0,1,1,0,5.211Z" transform="translate(-672.031 -740.344)" fill="#1391e6"/>
          <path id="パス_43793" data-name="パス 43793" d="M745.5,713.224H717.754A1.774,1.774,0,0,0,715.98,715v4.222a1.773,1.773,0,0,0,1.774,1.773H745.5a1.773,1.773,0,0,0,1.773-1.773V715a1.773,1.773,0,0,0-1.773-1.774Z" transform="translate(-677.059 -713.224)" fill="#1391e6"/>
        </g>
      </g>
    </g>
    <g id="tag" transform="translate(4.5 292.972)">
      <path id="合体_1" data-name="合体 1" d="M136.243,54.952,130.364,44.14H22a22,22,0,0,1-22-22V22A22,22,0,0,1,22,0H254a22,22,0,0,1,22,22v.139a22,22,0,0,1-22,22H145.636l-5.879,10.813a2,2,0,0,1-3.514,0Z" fill="#1391e6"/>
      <text id="駅から徒歩3分" transform="translate(138 30.055)" fill="#fff" font-size="20" font-family="rounded-mplus-1c-bold, 'Rounded M\+ \31 c'" font-weight="700" letter-spacing="0.08em"><tspan x="-71" y="0">駅</tspan><tspan y="0">から</tspan><tspan y="0">徒歩3分</tspan></text>
    </g>
  </g>
</svg>
