<svg xmlns="http://www.w3.org/2000/svg" xmlns:xlink="http://www.w3.org/1999/xlink" width="415" height="120" viewBox="0 0 415 120">
  <defs>
    <clipPath id="clip-path">
      <rect width="415" height="7" fill="none"/>
    </clipPath>
    <clipPath id="clip-path-2">
      <rect width="378" height="7" fill="none"/>
    </clipPath>
  </defs>
  <g id="top-text" transform="translate(-160 -519)">
    <g id="リピートグリッド_16" data-name="リピートグリッド 16" transform="translate(160 632)" clip-path="url(#clip-path)">
      <g transform="translate(-160 -570)">
        <circle id="楕円形_443" data-name="楕円形 443" cx="2" cy="2" r="2" transform="translate(160 570)" fill="#fff"/>
      </g>
      <g transform="translate(-150 -570)">
        <circle id="楕円形_443-2" data-name="楕円形 443" cx="2" cy="2" r="2" transform="translate(160 570)" fill="#fff"/>
      </g>
      <g transform="translate(-140 -570)">
        <circle id="楕円形_443-3" data-name="楕円形 443" cx="2" cy="2" r="2" transform="translate(160 570)" fill="#fff"/>
      </g>
      <g transform="translate(-130 -570)">
        <circle id="楕円形_443-4" data-name="楕円形 443" cx="2" cy="2" r="2" transform="translate(160 570)" fill="#fff"/>
      </g>
      <g transform="translate(-120 -570)">
        <circle id="楕円形_443-5" data-name="楕円形 443" cx="2" cy="2" r="2" transform="translate(160 570)" fill="#fff"/>
      </g>
      <g transform="translate(-110 -570)">
        <circle id="楕円形_443-6" data-name="楕円形 443" cx="2" cy="2" r="2" transform="translate(160 570)" fill="#fff"/>
      </g>
      <g transform="translate(-100 -570)">
        <circle id="楕円形_443-7" data-name="楕円形 443" cx="2" cy="2" r="2" transform="translate(160 570)" fill="#fff"/>
      </g>
      <g transform="translate(-90 -570)">
        <circle id="楕円形_443-8" data-name="楕円形 443" cx="2" cy="2" r="2" transform="translate(160 570)" fill="#fff"/>
      </g>
      <g transform="translate(-80 -570)">
        <circle id="楕円形_443-9" data-name="楕円形 443" cx="2" cy="2" r="2" transform="translate(160 570)" fill="#fff"/>
      </g>
      <g transform="translate(-70 -570)">
        <circle id="楕円形_443-10" data-name="楕円形 443" cx="2" cy="2" r="2" transform="translate(160 570)" fill="#fff"/>
      </g>
      <g transform="translate(-60 -570)">
        <circle id="楕円形_443-11" data-name="楕円形 443" cx="2" cy="2" r="2" transform="translate(160 570)" fill="#fff"/>
      </g>
      <g transform="translate(-50 -570)">
        <circle id="楕円形_443-12" data-name="楕円形 443" cx="2" cy="2" r="2" transform="translate(160 570)" fill="#fff"/>
      </g>
      <g transform="translate(-40 -570)">
        <circle id="楕円形_443-13" data-name="楕円形 443" cx="2" cy="2" r="2" transform="translate(160 570)" fill="#fff"/>
      </g>
      <g transform="translate(-30 -570)">
        <circle id="楕円形_443-14" data-name="楕円形 443" cx="2" cy="2" r="2" transform="translate(160 570)" fill="#fff"/>
      </g>
      <g transform="translate(-20 -570)">
        <circle id="楕円形_443-15" data-name="楕円形 443" cx="2" cy="2" r="2" transform="translate(160 570)" fill="#fff"/>
      </g>
      <g transform="translate(-10 -570)">
        <circle id="楕円形_443-16" data-name="楕円形 443" cx="2" cy="2" r="2" transform="translate(160 570)" fill="#fff"/>
      </g>
      <g transform="translate(0 -570)">
        <circle id="楕円形_443-17" data-name="楕円形 443" cx="2" cy="2" r="2" transform="translate(160 570)" fill="#fff"/>
      </g>
      <g transform="translate(10 -570)">
        <circle id="楕円形_443-18" data-name="楕円形 443" cx="2" cy="2" r="2" transform="translate(160 570)" fill="#fff"/>
      </g>
      <g transform="translate(20 -570)">
        <circle id="楕円形_443-19" data-name="楕円形 443" cx="2" cy="2" r="2" transform="translate(160 570)" fill="#fff"/>
      </g>
      <g transform="translate(30 -570)">
        <circle id="楕円形_443-20" data-name="楕円形 443" cx="2" cy="2" r="2" transform="translate(160 570)" fill="#fff"/>
      </g>
      <g transform="translate(40 -570)">
        <circle id="楕円形_443-21" data-name="楕円形 443" cx="2" cy="2" r="2" transform="translate(160 570)" fill="#fff"/>
      </g>
      <g transform="translate(50 -570)">
        <circle id="楕円形_443-22" data-name="楕円形 443" cx="2" cy="2" r="2" transform="translate(160 570)" fill="#fff"/>
      </g>
      <g transform="translate(60 -570)">
        <circle id="楕円形_443-23" data-name="楕円形 443" cx="2" cy="2" r="2" transform="translate(160 570)" fill="#fff"/>
      </g>
      <g transform="translate(70 -570)">
        <circle id="楕円形_443-24" data-name="楕円形 443" cx="2" cy="2" r="2" transform="translate(160 570)" fill="#fff"/>
      </g>
      <g transform="translate(80 -570)">
        <circle id="楕円形_443-25" data-name="楕円形 443" cx="2" cy="2" r="2" transform="translate(160 570)" fill="#fff"/>
      </g>
      <g transform="translate(90 -570)">
        <circle id="楕円形_443-26" data-name="楕円形 443" cx="2" cy="2" r="2" transform="translate(160 570)" fill="#fff"/>
      </g>
      <g transform="translate(100 -570)">
        <circle id="楕円形_443-27" data-name="楕円形 443" cx="2" cy="2" r="2" transform="translate(160 570)" fill="#fff"/>
      </g>
      <g transform="translate(110 -570)">
        <circle id="楕円形_443-28" data-name="楕円形 443" cx="2" cy="2" r="2" transform="translate(160 570)" fill="#fff"/>
      </g>
      <g transform="translate(120 -570)">
        <circle id="楕円形_443-29" data-name="楕円形 443" cx="2" cy="2" r="2" transform="translate(160 570)" fill="#fff"/>
      </g>
      <g transform="translate(130 -570)">
        <circle id="楕円形_443-30" data-name="楕円形 443" cx="2" cy="2" r="2" transform="translate(160 570)" fill="#fff"/>
      </g>
      <g transform="translate(140 -570)">
        <circle id="楕円形_443-31" data-name="楕円形 443" cx="2" cy="2" r="2" transform="translate(160 570)" fill="#fff"/>
      </g>
      <g transform="translate(150 -570)">
        <circle id="楕円形_443-32" data-name="楕円形 443" cx="2" cy="2" r="2" transform="translate(160 570)" fill="#fff"/>
      </g>
      <g transform="translate(160 -570)">
        <circle id="楕円形_443-33" data-name="楕円形 443" cx="2" cy="2" r="2" transform="translate(160 570)" fill="#fff"/>
      </g>
      <g transform="translate(170 -570)">
        <circle id="楕円形_443-34" data-name="楕円形 443" cx="2" cy="2" r="2" transform="translate(160 570)" fill="#fff"/>
      </g>
      <g transform="translate(180 -570)">
        <circle id="楕円形_443-35" data-name="楕円形 443" cx="2" cy="2" r="2" transform="translate(160 570)" fill="#fff"/>
      </g>
      <g transform="translate(190 -570)">
        <circle id="楕円形_443-36" data-name="楕円形 443" cx="2" cy="2" r="2" transform="translate(160 570)" fill="#fff"/>
      </g>
      <g transform="translate(200 -570)">
        <circle id="楕円形_443-37" data-name="楕円形 443" cx="2" cy="2" r="2" transform="translate(160 570)" fill="#fff"/>
      </g>
      <g transform="translate(210 -570)">
        <circle id="楕円形_443-38" data-name="楕円形 443" cx="2" cy="2" r="2" transform="translate(160 570)" fill="#fff"/>
      </g>
      <g transform="translate(220 -570)">
        <circle id="楕円形_443-39" data-name="楕円形 443" cx="2" cy="2" r="2" transform="translate(160 570)" fill="#fff"/>
      </g>
      <g transform="translate(230 -570)">
        <circle id="楕円形_443-40" data-name="楕円形 443" cx="2" cy="2" r="2" transform="translate(160 570)" fill="#fff"/>
      </g>
      <g transform="translate(240 -570)">
        <circle id="楕円形_443-41" data-name="楕円形 443" cx="2" cy="2" r="2" transform="translate(160 570)" fill="#fff"/>
      </g>
      <g transform="translate(250 -570)">
        <circle id="楕円形_443-42" data-name="楕円形 443" cx="2" cy="2" r="2" transform="translate(160 570)" fill="#fff"/>
      </g>
    </g>
    <text id="アットホームな歯医者さん" transform="translate(160 618)" fill="#fff" font-size="32" font-family="rounded-mplus-1c-bold, 'Rounded M\+ \31 c'" font-weight="700" letter-spacing="0.08em"><tspan x="0" y="0">アットホームな</tspan><tspan y="0">歯医者</tspan><tspan y="0">さん</tspan></text>
    <g id="リピートグリッド_14" data-name="リピートグリッド 14" transform="translate(160 567)" clip-path="url(#clip-path-2)">
      <g transform="translate(-160 -570)">
        <circle id="楕円形_443-43" data-name="楕円形 443" cx="2" cy="2" r="2" transform="translate(160 570)" fill="#fff"/>
      </g>
      <g transform="translate(-150 -570)">
        <circle id="楕円形_443-44" data-name="楕円形 443" cx="2" cy="2" r="2" transform="translate(160 570)" fill="#fff"/>
      </g>
      <g transform="translate(-140 -570)">
        <circle id="楕円形_443-45" data-name="楕円形 443" cx="2" cy="2" r="2" transform="translate(160 570)" fill="#fff"/>
      </g>
      <g transform="translate(-130 -570)">
        <circle id="楕円形_443-46" data-name="楕円形 443" cx="2" cy="2" r="2" transform="translate(160 570)" fill="#fff"/>
      </g>
      <g transform="translate(-120 -570)">
        <circle id="楕円形_443-47" data-name="楕円形 443" cx="2" cy="2" r="2" transform="translate(160 570)" fill="#fff"/>
      </g>
      <g transform="translate(-110 -570)">
        <circle id="楕円形_443-48" data-name="楕円形 443" cx="2" cy="2" r="2" transform="translate(160 570)" fill="#fff"/>
      </g>
      <g transform="translate(-100 -570)">
        <circle id="楕円形_443-49" data-name="楕円形 443" cx="2" cy="2" r="2" transform="translate(160 570)" fill="#fff"/>
      </g>
      <g transform="translate(-90 -570)">
        <circle id="楕円形_443-50" data-name="楕円形 443" cx="2" cy="2" r="2" transform="translate(160 570)" fill="#fff"/>
      </g>
      <g transform="translate(-80 -570)">
        <circle id="楕円形_443-51" data-name="楕円形 443" cx="2" cy="2" r="2" transform="translate(160 570)" fill="#fff"/>
      </g>
      <g transform="translate(-70 -570)">
        <circle id="楕円形_443-52" data-name="楕円形 443" cx="2" cy="2" r="2" transform="translate(160 570)" fill="#fff"/>
      </g>
      <g transform="translate(-60 -570)">
        <circle id="楕円形_443-53" data-name="楕円形 443" cx="2" cy="2" r="2" transform="translate(160 570)" fill="#fff"/>
      </g>
      <g transform="translate(-50 -570)">
        <circle id="楕円形_443-54" data-name="楕円形 443" cx="2" cy="2" r="2" transform="translate(160 570)" fill="#fff"/>
      </g>
      <g transform="translate(-40 -570)">
        <circle id="楕円形_443-55" data-name="楕円形 443" cx="2" cy="2" r="2" transform="translate(160 570)" fill="#fff"/>
      </g>
      <g transform="translate(-30 -570)">
        <circle id="楕円形_443-56" data-name="楕円形 443" cx="2" cy="2" r="2" transform="translate(160 570)" fill="#fff"/>
      </g>
      <g transform="translate(-20 -570)">
        <circle id="楕円形_443-57" data-name="楕円形 443" cx="2" cy="2" r="2" transform="translate(160 570)" fill="#fff"/>
      </g>
      <g transform="translate(-10 -570)">
        <circle id="楕円形_443-58" data-name="楕円形 443" cx="2" cy="2" r="2" transform="translate(160 570)" fill="#fff"/>
      </g>
      <g transform="translate(0 -570)">
        <circle id="楕円形_443-59" data-name="楕円形 443" cx="2" cy="2" r="2" transform="translate(160 570)" fill="#fff"/>
      </g>
      <g transform="translate(10 -570)">
        <circle id="楕円形_443-60" data-name="楕円形 443" cx="2" cy="2" r="2" transform="translate(160 570)" fill="#fff"/>
      </g>
      <g transform="translate(20 -570)">
        <circle id="楕円形_443-61" data-name="楕円形 443" cx="2" cy="2" r="2" transform="translate(160 570)" fill="#fff"/>
      </g>
      <g transform="translate(30 -570)">
        <circle id="楕円形_443-62" data-name="楕円形 443" cx="2" cy="2" r="2" transform="translate(160 570)" fill="#fff"/>
      </g>
      <g transform="translate(40 -570)">
        <circle id="楕円形_443-63" data-name="楕円形 443" cx="2" cy="2" r="2" transform="translate(160 570)" fill="#fff"/>
      </g>
      <g transform="translate(50 -570)">
        <circle id="楕円形_443-64" data-name="楕円形 443" cx="2" cy="2" r="2" transform="translate(160 570)" fill="#fff"/>
      </g>
      <g transform="translate(60 -570)">
        <circle id="楕円形_443-65" data-name="楕円形 443" cx="2" cy="2" r="2" transform="translate(160 570)" fill="#fff"/>
      </g>
      <g transform="translate(70 -570)">
        <circle id="楕円形_443-66" data-name="楕円形 443" cx="2" cy="2" r="2" transform="translate(160 570)" fill="#fff"/>
      </g>
      <g transform="translate(80 -570)">
        <circle id="楕円形_443-67" data-name="楕円形 443" cx="2" cy="2" r="2" transform="translate(160 570)" fill="#fff"/>
      </g>
      <g transform="translate(90 -570)">
        <circle id="楕円形_443-68" data-name="楕円形 443" cx="2" cy="2" r="2" transform="translate(160 570)" fill="#fff"/>
      </g>
      <g transform="translate(100 -570)">
        <circle id="楕円形_443-69" data-name="楕円形 443" cx="2" cy="2" r="2" transform="translate(160 570)" fill="#fff"/>
      </g>
      <g transform="translate(110 -570)">
        <circle id="楕円形_443-70" data-name="楕円形 443" cx="2" cy="2" r="2" transform="translate(160 570)" fill="#fff"/>
      </g>
      <g transform="translate(120 -570)">
        <circle id="楕円形_443-71" data-name="楕円形 443" cx="2" cy="2" r="2" transform="translate(160 570)" fill="#fff"/>
      </g>
      <g transform="translate(130 -570)">
        <circle id="楕円形_443-72" data-name="楕円形 443" cx="2" cy="2" r="2" transform="translate(160 570)" fill="#fff"/>
      </g>
      <g transform="translate(140 -570)">
        <circle id="楕円形_443-73" data-name="楕円形 443" cx="2" cy="2" r="2" transform="translate(160 570)" fill="#fff"/>
      </g>
      <g transform="translate(150 -570)">
        <circle id="楕円形_443-74" data-name="楕円形 443" cx="2" cy="2" r="2" transform="translate(160 570)" fill="#fff"/>
      </g>
      <g transform="translate(160 -570)">
        <circle id="楕円形_443-75" data-name="楕円形 443" cx="2" cy="2" r="2" transform="translate(160 570)" fill="#fff"/>
      </g>
      <g transform="translate(170 -570)">
        <circle id="楕円形_443-76" data-name="楕円形 443" cx="2" cy="2" r="2" transform="translate(160 570)" fill="#fff"/>
      </g>
      <g transform="translate(180 -570)">
        <circle id="楕円形_443-77" data-name="楕円形 443" cx="2" cy="2" r="2" transform="translate(160 570)" fill="#fff"/>
      </g>
      <g transform="translate(190 -570)">
        <circle id="楕円形_443-78" data-name="楕円形 443" cx="2" cy="2" r="2" transform="translate(160 570)" fill="#fff"/>
      </g>
      <g transform="translate(200 -570)">
        <circle id="楕円形_443-79" data-name="楕円形 443" cx="2" cy="2" r="2" transform="translate(160 570)" fill="#fff"/>
      </g>
      <g transform="translate(210 -570)">
        <circle id="楕円形_443-80" data-name="楕円形 443" cx="2" cy="2" r="2" transform="translate(160 570)" fill="#fff"/>
      </g>
    </g>
    <text id="街の皆さまの笑顔を守る" transform="translate(160 553)" fill="#fff" font-size="32" font-family="rounded-mplus-1c-bold, 'Rounded M\+ \31 c'" font-weight="700" letter-spacing="0.08em"><tspan x="0" y="0">街</tspan><tspan y="0">の</tspan><tspan y="0">皆</tspan><tspan y="0">さまの</tspan><tspan y="0">笑顔</tspan><tspan y="0">を</tspan><tspan y="0">守</tspan><tspan y="0">る</tspan></text>
  </g>
</svg>
