<svg height="32" viewBox="0 0 1280 32" width="1280" xmlns="http://www.w3.org/2000/svg" xmlns:xlink="http://www.w3.org/1999/xlink"><clipPath id="a"><path d="m0 0h1280v32h-1280z"/></clipPath><g clip-path="url(#a)" fill="#dff1fd"><path d="m0 14.24c10.619 0 16-3.69 21.208-7.26s10.166-6.98 20.292-6.98 15.084 3.39 20.292 7 10.608 7.24 21.208 7.24v17.76h-83z"/><path d="m0 14.24c10.619 0 16-3.69 21.208-7.26s10.166-6.98 20.292-6.98 15.084 3.39 20.292 7 10.608 7.24 21.208 7.24v17.76h-83z" transform="translate(83)"/><path d="m0 14.24c10.619 0 16-3.69 21.208-7.26s10.166-6.98 20.292-6.98 15.084 3.39 20.292 7 10.608 7.24 21.208 7.24v17.76h-83z" transform="translate(166)"/><path d="m0 14.24c10.619 0 16-3.69 21.208-7.26s10.166-6.98 20.292-6.98 15.084 3.39 20.292 7 10.608 7.24 21.208 7.24v17.76h-83z" transform="translate(249)"/><path d="m0 14.24c10.619 0 16-3.69 21.208-7.26s10.166-6.98 20.292-6.98 15.084 3.39 20.292 7 10.608 7.24 21.208 7.24v17.76h-83z" transform="translate(332)"/><path d="m0 14.24c10.619 0 16-3.69 21.208-7.26s10.166-6.98 20.292-6.98 15.084 3.39 20.292 7 10.608 7.24 21.208 7.24v17.76h-83z" transform="translate(415)"/><path d="m0 14.24c10.619 0 16-3.69 21.208-7.26s10.166-6.98 20.292-6.98 15.084 3.39 20.292 7 10.608 7.24 21.208 7.24v17.76h-83z" transform="translate(498)"/><path d="m0 14.24c10.619 0 16-3.69 21.208-7.26s10.166-6.98 20.292-6.98 15.084 3.39 20.292 7 10.608 7.24 21.208 7.24v17.76h-83z" transform="translate(581)"/><path d="m0 14.24c10.619 0 16-3.69 21.208-7.26s10.166-6.98 20.292-6.98 15.084 3.39 20.292 7 10.608 7.24 21.208 7.24v17.76h-83z" transform="translate(664)"/><path d="m0 14.24c10.619 0 16-3.69 21.208-7.26s10.166-6.98 20.292-6.98 15.084 3.39 20.292 7 10.608 7.24 21.208 7.24v17.76h-83z" transform="translate(747)"/><path d="m0 14.24c10.619 0 16-3.69 21.208-7.26s10.166-6.98 20.292-6.98 15.084 3.39 20.292 7 10.608 7.24 21.208 7.24v17.76h-83z" transform="translate(830)"/><path d="m0 14.24c10.619 0 16-3.69 21.208-7.26s10.166-6.98 20.292-6.98 15.084 3.39 20.292 7 10.608 7.24 21.208 7.24v17.76h-83z" transform="translate(913)"/><path d="m0 14.24c10.619 0 16-3.69 21.208-7.26s10.166-6.98 20.292-6.98 15.084 3.39 20.292 7 10.608 7.24 21.208 7.24v17.76h-83z" transform="translate(996)"/><path d="m0 14.24c10.619 0 16-3.69 21.208-7.26s10.166-6.98 20.292-6.98 15.084 3.39 20.292 7 10.608 7.24 21.208 7.24v17.76h-83z" transform="translate(1079)"/><path d="m0 14.24c10.619 0 16-3.69 21.208-7.26s10.166-6.98 20.292-6.98 15.084 3.39 20.292 7 10.608 7.24 21.208 7.24v17.76h-83z" transform="translate(1162)"/><path d="m0 14.24c10.619 0 16-3.69 21.208-7.26s10.166-6.98 20.292-6.98 15.084 3.39 20.292 7 10.608 7.24 21.208 7.24v17.76h-83z" transform="translate(1245)"/></g></svg>