<svg xmlns="http://www.w3.org/2000/svg" width="57.356" height="57.362" viewBox="0 0 57.356 57.362">
  <path id="パス_43727" data-name="パス 43727" d="M70.8,124.445c-1.854,6.384-8.581,13.124-14.965,14.965L51.5,140.65c-6.384,1.854-6.384,4.874,0,6.715l4.334,1.24c6.384,1.841,13.111,8.581,14.965,14.965l1.24,4.321c1.842,6.4,4.862,6.4,6.7,0L80,163.57c1.842-6.384,8.581-13.124,14.965-14.965l4.321-1.24c6.384-1.841,6.384-4.862,0-6.715l-4.321-1.24c-6.384-1.841-13.124-8.581-14.965-14.965l-1.252-4.321c-1.841-6.4-4.862-6.4-6.7,0Z" transform="translate(-46.716 -115.326)" fill="#dff1fd"/>
</svg>
